<svg xmlns="http://www.w3.org/2000/svg" xmlns:xlink="http://www.w3.org/1999/xlink" width="24" height="24" viewBox="0 0 24 24"><defs><style>.a,.b{fill:#fff;}.a{stroke:#fff;}.c{clip-path:url(#a);}.d{clip-path:url(#b);}</style><clipPath id="a"><rect class="a" width="24" height="24"/></clipPath><clipPath id="b"><rect class="b" width="19.692" height="20.308" transform="translate(0 0)"/></clipPath></defs><g transform="translate(0.471)"><g class="c" transform="translate(-0.471 0)"><g class="d" transform="translate(2.462 1.846)"><path class="b" d="M20,10A10,10,0,1,0,8.439,19.883v-6.99H5.9V10h2.54V7.8a3.529,3.529,0,0,1,3.778-3.891,15.383,15.383,0,0,1,2.239.2V6.564H13.194a1.445,1.445,0,0,0-1.629,1.563V10h2.774L13.9,12.893H11.565v6.99A10,10,0,0,0,20,10Z" transform="translate(-0.171 0.154)"/></g></g></g></svg>