<svg xmlns="http://www.w3.org/2000/svg" xmlns:xlink="http://www.w3.org/1999/xlink" width="24" height="24" viewBox="0 0 24 24"><defs><style>.a,.c{fill:#fff;}.a{stroke:#fff;}.b{clip-path:url(#a);}</style><clipPath id="a"><rect class="a" width="24" height="24" transform="translate(0.008)"/></clipPath></defs><g class="b" transform="translate(-0.008)"><g transform="translate(1.854 1.846)"><path class="c" d="M15.906,20.308H4.4A4.39,4.39,0,0,1,0,15.91V4.4A4.4,4.4,0,0,1,4.4,0H15.906a4.4,4.4,0,0,1,4.4,4.4V15.91a4.391,4.391,0,0,1-4.4,4.4ZM10.119,3.252c-4.078,0-7.4,2.7-7.4,6.009a5.4,5.4,0,0,0,1.755,3.894A7.92,7.92,0,0,0,8.9,15.182c.37.078.593.205.642.374a1.565,1.565,0,0,1,.019.672l0,.014c-.031.2-.087.536-.1.615l0,.023a.536.536,0,0,0,.041.409.253.253,0,0,0,.2.075,1.119,1.119,0,0,0,.4-.1,23.436,23.436,0,0,0,5.806-4.3,5.325,5.325,0,0,0,1.608-3.705C17.514,5.948,14.2,3.252,10.119,3.252Z" transform="translate(0 0)"/><g transform="translate(5.201 7.672)"><g transform="translate(0)"><path class="c" d="M47.567,45.3H47.05a.147.147,0,0,0-.15.133V48.6a.136.136,0,0,0,.15.133h.517a.147.147,0,0,0,.15-.133V45.433a.147.147,0,0,0-.15-.133" transform="translate(-44.133 -45.267)"/><path class="c" d="M57.917,45.3h-.5a.147.147,0,0,0-.15.133v1.884l-1.45-1.967a.016.016,0,0,0-.017-.017h0l-.017-.017H55.25a.147.147,0,0,0-.15.133v3.167a.136.136,0,0,0,.15.133h.517a.147.147,0,0,0,.15-.133V46.734l1.45,1.967c.017.017.017.033.033.033h.517a.147.147,0,0,0,.15-.133V45.433a.147.147,0,0,0-.15-.133" transform="translate(-50.966 -45.267)"/><path class="c" d="M32.5,47.867H31.117V45.35a.149.149,0,0,0-.15-.15H30.45a.149.149,0,0,0-.15.15v3.167h0a.237.237,0,0,0,.033.1h0a.237.237,0,0,0,.1.033h2.034a.136.136,0,0,0,.133-.15v-.517c.05-.05-.017-.117-.1-.117" transform="translate(-30.3 -45.183)"/><path class="c" d="M78.067,45.917a.136.136,0,0,0,.133-.15V45.25a.147.147,0,0,0-.133-.15H76.033a.237.237,0,0,0-.1.033h0a.237.237,0,0,0-.033.1h0V48.4h0a.237.237,0,0,0,.033.1h0a.237.237,0,0,0,.1.033h2.034a.136.136,0,0,0,.133-.15v-.517a.147.147,0,0,0-.133-.15H76.684V47.25h1.384a.136.136,0,0,0,.133-.15v-.517a.147.147,0,0,0-.133-.15H76.684v-.517Z" transform="translate(-68.298 -45.1)"/></g></g></g></g></svg>