<svg xmlns="http://www.w3.org/2000/svg" width="80" height="79.382" viewBox="0 0 80 79.382"><defs><style>.a{fill:#650300;}</style></defs><path class="a" d="M53.875,93.26h0a39.692,39.692,0,1,1,40-39.691A39.894,39.894,0,0,1,53.872,93.26Zm0-76.216a36.525,36.525,0,1,0,0,73.049h0a36.525,36.525,0,1,0,0-73.049Z" transform="translate(-13.87 -13.878)"/><g transform="translate(27.499 11.41)"><path class="a" d="M61.132,80.611c-7.1,0-12.884-5.413-12.884-12.065a1.588,1.588,0,0,1,3.175,0c0,4.91,4.355,8.9,9.708,8.9s9.708-3.995,9.708-8.9-4.354-8.9-9.708-8.9c-7.1,0-12.884-5.412-12.884-12.065s5.78-12.065,12.884-12.065A13.221,13.221,0,0,1,71,39.822a1.576,1.576,0,0,1-.128,2.232,1.593,1.593,0,0,1-2.241-.127,10.04,10.04,0,0,0-7.5-3.254c-5.354,0-9.708,3.994-9.708,8.9s4.355,8.9,9.708,8.9c7.1,0,12.883,5.413,12.883,12.065S68.235,80.611,61.132,80.611Z" transform="translate(-48.248 -29.749)"/><path class="a" d="M63.62,84.878A1.585,1.585,0,0,1,62.032,83.3V29.834a1.588,1.588,0,0,1,3.175,0V83.3A1.585,1.585,0,0,1,63.62,84.878Z" transform="translate(-51.09 -28.252)"/></g></svg>