<svg xmlns="http://www.w3.org/2000/svg" width="23" height="23" viewBox="0 0 23 23"><defs><style>.a{fill:#fff;}</style></defs><path class="a" d="M10.632,15.96a19.243,19.243,0,0,0,8.421,8.414l2.811-2.817a1.282,1.282,0,0,1,1.3-.313,14.546,14.546,0,0,0,4.562.728A1.273,1.273,0,0,1,29,23.25v4.472A1.273,1.273,0,0,1,27.722,29,21.72,21.72,0,0,1,6,7.278,1.277,1.277,0,0,1,7.278,6H11.75a1.273,1.273,0,0,1,1.278,1.278,14.546,14.546,0,0,0,.728,4.562,1.282,1.282,0,0,1-.313,1.3Z" transform="translate(-6 -6)"/></svg>