<svg xmlns="http://www.w3.org/2000/svg" xmlns:xlink="http://www.w3.org/1999/xlink" width="24" height="24" viewBox="0 0 24 24"><defs><style>.a,.b{fill:#fff;}.a{stroke:#fff;}.c{clip-path:url(#a);}.d{clip-path:url(#b);}</style><clipPath id="a"><rect class="a" width="24" height="24" transform="translate(0.268)"/></clipPath><clipPath id="b"><rect class="b" width="19.692" height="19.692" transform="translate(0 0)"/></clipPath></defs><g class="c" transform="translate(-0.268)"><g class="d" transform="translate(2.114 1.846)"><path class="b" d="M13.942,5.874c2.629,0,2.938.012,3.977.059a5.371,5.371,0,0,1,1.828.34,3.055,3.055,0,0,1,1.133.735,3.007,3.007,0,0,1,.735,1.133,5.472,5.472,0,0,1,.34,1.828c.047,1.039.059,1.348.059,3.977s-.012,2.938-.059,3.977a5.371,5.371,0,0,1-.34,1.828,3.055,3.055,0,0,1-.735,1.133,3.007,3.007,0,0,1-1.133.735,5.472,5.472,0,0,1-1.828.34c-1.039.047-1.348.059-3.977.059S11,22.006,9.964,21.959a5.371,5.371,0,0,1-1.828-.34A3.055,3.055,0,0,1,7,20.885a3.007,3.007,0,0,1-.735-1.133,5.472,5.472,0,0,1-.34-1.828c-.047-1.039-.059-1.348-.059-3.977s.012-2.938.059-3.977a5.371,5.371,0,0,1,.34-1.828A3.055,3.055,0,0,1,7,7.007a3.007,3.007,0,0,1,1.133-.735,5.472,5.472,0,0,1,1.828-.34c1.039-.051,1.348-.059,3.977-.059m0-1.774c-2.672,0-3.008.012-4.059.059A7.214,7.214,0,0,0,7.5,4.616,4.8,4.8,0,0,0,5.753,5.753,4.882,4.882,0,0,0,4.616,7.5a7.219,7.219,0,0,0-.457,2.391c-.047,1.047-.059,1.383-.059,4.055S4.112,16.95,4.159,18a7.261,7.261,0,0,0,.457,2.391,4.8,4.8,0,0,0,1.137,1.743A4.882,4.882,0,0,0,7.5,23.272a7.219,7.219,0,0,0,2.391.457c1.051.047,1.383.059,4.059.059s3.008-.012,4.059-.059a7.261,7.261,0,0,0,2.391-.457,4.8,4.8,0,0,0,1.743-1.137,4.882,4.882,0,0,0,1.137-1.743A7.219,7.219,0,0,0,23.733,18c.047-1.051.059-1.383.059-4.059s-.012-3.008-.059-4.059a7.261,7.261,0,0,0-.457-2.391,4.8,4.8,0,0,0-1.137-1.743A4.882,4.882,0,0,0,20.4,4.612a7.219,7.219,0,0,0-2.391-.457C16.95,4.112,16.614,4.1,13.942,4.1Z" transform="translate(-3.951 -3.786)"/><path class="b" d="M131.656,126.6a5.056,5.056,0,1,0,5.056,5.056A5.056,5.056,0,0,0,131.656,126.6Zm0,8.338a3.282,3.282,0,1,1,3.282-3.282A3.281,3.281,0,0,1,131.656,134.938Z" transform="translate(-121.665 -121.499)"/><circle class="b" cx="1.18" cy="1.18" r="1.18" transform="translate(14.066 3.721)"/></g></g></svg>