<svg xmlns="http://www.w3.org/2000/svg" width="80" height="75.19" viewBox="0 0 80 75.19"><defs><style>.a{fill:#650300;}</style></defs><path class="a" d="M50.833,89.221a1.5,1.5,0,0,1-.988-.37C48.622,87.785,19.85,62.562,12.53,43A20.753,20.753,0,1,1,50.863,27.1a20.753,20.753,0,0,1,39.971,7.829c0,.413-.016.822-.04,1.23C90.73,54.7,53.413,87.463,51.822,88.85A1.5,1.5,0,0,1,50.833,89.221ZM31.584,17.04A17.746,17.746,0,0,0,15.3,41.84c.011.024.02.049.03.074,6.3,16.877,30.313,39.121,35.5,43.788,5.978-5.377,36.952-34,36.952-49.594,0-.032,0-.062,0-.093.022-.36.037-.724.037-1.089a17.743,17.743,0,0,0-35.487,0c0,.089,0,.175.007.263l.008.226a1.5,1.5,0,0,1-.43,1.085,1.568,1.568,0,0,1-2.169,0,1.516,1.516,0,0,1-.439-1.092l0-.138c.005-.161.011-.321.011-.482A17.764,17.764,0,0,0,31.584,17.04Z" transform="translate(-10.834 -14.031)"/></svg>