<svg xmlns="http://www.w3.org/2000/svg" width="80" height="55.99" viewBox="0 0 80 55.99"><defs><style>.a{fill:#650300;}</style></defs><path class="a" d="M31.291,90.538A17.283,17.283,0,1,1,48.575,73.254,17.3,17.3,0,0,1,31.291,90.538Zm0-31.349A14.065,14.065,0,1,0,45.357,73.253,14.081,14.081,0,0,0,31.291,59.189Z" transform="translate(-14.008 -34.549)"/><path class="a" d="M88.146,90.538A17.283,17.283,0,1,1,105.43,73.254,17.3,17.3,0,0,1,88.146,90.538Zm0-31.349a14.065,14.065,0,1,0,14.066,14.064A14.08,14.08,0,0,0,88.146,59.189Z" transform="translate(-25.43 -34.549)"/><g transform="translate(1.582)"><path class="a" d="M17.585,62.456a1.61,1.61,0,0,1-1.524-2.127l8.821-25.9c1-3.965,5.858-6.217,10.876-5.028a1.609,1.609,0,0,1-.742,3.131c-3.273-.776-6.489.47-7.022,2.718l-.043.148L19.108,61.366A1.608,1.608,0,0,1,17.585,62.456Z" transform="translate(-15.975 -29.077)"/><path class="a" d="M105,62.455a1.611,1.611,0,0,1-1.524-1.09L94.585,35.248a3.662,3.662,0,0,0-2.262-2.411,7.621,7.621,0,0,0-4.76-.307,1.609,1.609,0,0,1-.742-3.131,10.846,10.846,0,0,1,6.789.49A6.8,6.8,0,0,1,97.7,34.427l8.822,25.9A1.607,1.607,0,0,1,105,62.455Z" transform="translate(-29.89 -29.076)"/></g><path class="a" d="M68.973,78.307a1.592,1.592,0,0,1-.729-.176A16.285,16.285,0,0,0,61.612,76.8a13.835,13.835,0,0,0-6.225,1.29,1.609,1.609,0,1,1-1.6-2.789,16.727,16.727,0,0,1,7.829-1.718,19.168,19.168,0,0,1,8.093,1.68,1.609,1.609,0,0,1-.733,3.042Z" transform="translate(-21.78 -37.927)"/></svg>