<svg xmlns="http://www.w3.org/2000/svg" width="80" height="80" viewBox="0 0 80 80"><defs><style>.a{fill:#650300;}</style></defs><g transform="translate(0 0)"><path class="a" d="M53.907,93.872h0a40,40,0,1,1,40-40A40.048,40.048,0,0,1,53.9,93.872Zm0-76.808a36.808,36.808,0,1,0,0,73.617h0a36.808,36.808,0,0,0,0-73.617Z" transform="translate(-13.902 -13.872)"/><path class="a" d="M56.746,84.921h0A28.21,28.21,0,1,1,84.953,56.71,28.246,28.246,0,0,1,56.744,84.921Zm0-53.241a25.031,25.031,0,1,0,0,50.062h0a25.031,25.031,0,0,0,0-50.062Z" transform="translate(-16.742 -16.712)"/><path class="a" d="M62.822,67.814a5.023,5.023,0,1,1,3.551-1.468A5,5,0,0,1,62.822,67.814Zm0-6.824a1.787,1.787,0,0,0-1.273.528,1.806,1.806,0,0,0,0,2.55,1.848,1.848,0,0,0,2.544,0,1.8,1.8,0,0,0-1.272-3.075Z" transform="translate(-22.821 -22.791)"/></g><path class="a" d="M66.637,59.551A1.612,1.612,0,0,1,65.5,56.8L76.621,45.676A1.612,1.612,0,0,1,78.9,47.955L67.776,59.079A1.6,1.6,0,0,1,66.637,59.551Z" transform="translate(-24.319 -20.257)"/><path class="a" d="M58.638,60.22a1.605,1.605,0,0,1-1.14-.472l-8.26-8.261a1.612,1.612,0,0,1,2.279-2.28l8.26,8.262a1.612,1.612,0,0,1-1.14,2.751Z" transform="translate(-20.992 -20.963)"/></svg>