<svg xmlns="http://www.w3.org/2000/svg" width="34" height="34" viewBox="0 0 34 34"><defs><style>.a{fill:#aa0601;stroke:#aa0601;stroke-width:2px;}</style></defs><path class="a" d="M20.541,29.083A8.541,8.541,0,1,0,12,20.541,8.551,8.551,0,0,0,20.541,29.083Zm0-15.769a7.227,7.227,0,1,1-7.227,7.227A7.236,7.236,0,0,1,20.541,13.314Z" transform="translate(-3.773 -3.773)"/><rect class="a" width="1" height="5" transform="translate(16 1)"/><rect class="a" width="1" height="5" transform="translate(16 28)"/><rect class="a" width="5" height="1" transform="translate(28 16)"/><rect class="a" width="5" height="1" transform="translate(1 16)"/><rect class="a" width="4.599" height="1.314" transform="translate(24.203 8.408) rotate(-45)"/><rect class="a" width="4.599" height="1.314" transform="translate(5.153 27.455) rotate(-45)"/><rect class="a" width="1.314" height="4.599" transform="translate(24.202 25.131) rotate(-45)"/><rect class="a" width="1.314" height="4.599" transform="translate(5.154 6.083) rotate(-45)"/></svg>